<svg xmlns="http://www.w3.org/2000/svg" width="1200" height="900" viewBox="0 0 1200 900" role="img" aria-labelledby="title desc">
  <title id="title">FreshNest Cleaning logo concept</title>
  <desc id="desc">A clean modern logo with a sparkling house and leaf mark for a cleaning business.</desc>
  <defs>
    <linearGradient id="bg" x1="0" y1="0" x2="1" y2="1">
      <stop offset="0" stop-color="#E8FFF7"/>
      <stop offset="1" stop-color="#F8FBFF"/>
    </linearGradient>
    <linearGradient id="mark" x1="0" y1="0" x2="1" y2="1">
      <stop offset="0" stop-color="#28D9A2"/>
      <stop offset="1" stop-color="#348AF7"/>
    </linearGradient>
    <filter id="shadow" x="-20%" y="-20%" width="140%" height="140%">
      <feDropShadow dx="0" dy="24" stdDeviation="28" flood-color="#1A5770" flood-opacity="0.18"/>
    </filter>
  </defs>
  <rect width="1200" height="900" rx="64" fill="url(#bg)"/>
  <circle cx="965" cy="160" r="150" fill="#D7F7FF" opacity="0.75"/>
  <circle cx="170" cy="720" r="180" fill="#D8FFEF" opacity="0.9"/>
  <g filter="url(#shadow)">
    <rect x="205" y="150" width="790" height="600" rx="58" fill="#FFFFFF"/>
  </g>
  <g transform="translate(320 245)">
    <path d="M235 72 70 210v210c0 25 20 45 45 45h240c25 0 45-20 45-45V210L235 72Z" fill="#10242F"/>
    <path d="M235 128 118 226v175c0 12 10 22 22 22h190c12 0 22-10 22-22V226L235 128Z" fill="url(#mark)"/>
    <path d="M344 116c-88 11-143 63-153 154 87-6 147-59 153-154Z" fill="#B8FFE6" stroke="#10242F" stroke-width="18" stroke-linejoin="round"/>
    <path d="M212 260c44-39 83-67 132-91" fill="none" stroke="#10242F" stroke-width="15" stroke-linecap="round"/>
    <path d="M94 148 235 30l141 118" fill="none" stroke="#10242F" stroke-width="34" stroke-linecap="round" stroke-linejoin="round"/>
    <path d="M162 321h148" stroke="#FFFFFF" stroke-width="24" stroke-linecap="round" opacity="0.86"/>
    <path d="M162 365h112" stroke="#FFFFFF" stroke-width="24" stroke-linecap="round" opacity="0.68"/>
    <g fill="#10242F">
      <path d="M456 86l18 38 39 17-39 18-18 39-18-39-39-18 39-17 18-38Z"/>
      <path d="M104 54l12 25 25 11-25 12-12 25-12-25-25-12 25-11 12-25Z"/>
      <circle cx="438" cy="294" r="16"/>
    </g>
  </g>
  <text x="600" y="655" text-anchor="middle" font-family="DM Sans, Arial, sans-serif" font-size="82" font-weight="900" letter-spacing="-3" fill="#10242F">FreshNest</text>
  <text x="600" y="710" text-anchor="middle" font-family="DM Sans, Arial, sans-serif" font-size="34" font-weight="700" letter-spacing="8" fill="#4B6875">CLEANING CO.</text>
</svg>
