<svg xmlns="http://www.w3.org/2000/svg" viewBox="0 0 900 650" role="img" aria-labelledby="title desc">
<title id="title">Greenline Lawn Care logo concept</title><desc id="desc">Bold lawn care badge with grass blades, sun, and clean logo text.</desc>
<defs>
  <linearGradient id="bg" x1="0" x2="1" y1="0" y2="1"><stop stop-color="#063d2e"/><stop offset="1" stop-color="#0fbf6b"/></linearGradient>
  <linearGradient id="sun" x1="0" x2="1"><stop stop-color="#ffd35a"/><stop offset="1" stop-color="#ff8a32"/></linearGradient>
  <filter id="shadow" x="-20%" y="-20%" width="140%" height="140%"><feDropShadow dx="0" dy="18" stdDeviation="16" flood-color="#02140e" flood-opacity=".35"/></filter>
</defs>
<rect width="900" height="650" rx="54" fill="url(#bg)"/>
<circle cx="688" cy="142" r="82" fill="url(#sun)" opacity=".95"/>
<path d="M0 496 C130 430 225 505 343 445 C481 373 571 470 900 365 L900 650 L0 650 Z" fill="#0b2d20" opacity=".55"/>
<g filter="url(#shadow)">
<path d="M176 478 C236 335 300 247 370 176 C440 247 504 335 564 478 Z" fill="#f9fff2"/>
<path d="M242 470 C290 350 328 284 370 232 C412 284 450 350 498 470 Z" fill="#1a8f52"/>
<path d="M310 470 C332 356 350 302 370 270 C390 302 408 356 430 470 Z" fill="#79d84f"/>
</g>
<text x="450" y="548" text-anchor="middle" font-family="Arial Black, Impact, sans-serif" font-size="78" fill="#ffffff" letter-spacing="-3">GREENLINE</text>
<text x="450" y="604" text-anchor="middle" font-family="Arial, sans-serif" font-size="34" fill="#dfffe6" letter-spacing="9">LAWN CARE</text>
</svg>