<svg xmlns="http://www.w3.org/2000/svg" width="1200" height="900" viewBox="0 0 1200 900" role="img" aria-labelledby="title desc">
  <title id="title">Greenline Lawn Care logo concept</title>
  <desc id="desc">A bold badge logo with grass blades and sun lines for a lawn care business.</desc>
  <defs>
    <linearGradient id="sky" x1="0" y1="0" x2="0" y2="1">
      <stop offset="0" stop-color="#FFF6D8"/>
      <stop offset="1" stop-color="#E9FFE9"/>
    </linearGradient>
    <linearGradient id="green" x1="0" y1="0" x2="1" y2="1">
      <stop offset="0" stop-color="#B9F436"/>
      <stop offset="1" stop-color="#128A45"/>
    </linearGradient>
    <filter id="shadow" x="-20%" y="-20%" width="140%" height="140%">
      <feDropShadow dx="0" dy="24" stdDeviation="28" flood-color="#264713" flood-opacity="0.22"/>
    </filter>
  </defs>
  <rect width="1200" height="900" rx="64" fill="url(#sky)"/>
  <circle cx="928" cy="180" r="132" fill="#FFD35A" opacity="0.95"/>
  <path d="M0 720c180-82 330-68 480-25 202 58 363 54 720-82v287H0Z" fill="#D8F9B0"/>
  <g filter="url(#shadow)">
    <path d="M600 115c173 0 313 99 313 220v150c0 154-313 300-313 300S287 639 287 485V335c0-121 140-220 313-220Z" fill="#163A22"/>
  </g>
  <path d="M600 166c137 0 248 76 248 170v125c0 112-185 222-248 256-63-34-248-144-248-256V336c0-94 111-170 248-170Z" fill="url(#green)"/>
  <g transform="translate(390 244)">
    <path d="M210 295c-53-124-32-226 0-295 32 69 53 171 0 295Z" fill="#F7FFE8"/>
    <path d="M142 292C70 199 58 104 70 36c49 49 94 134 72 256Z" fill="#E2FFD3"/>
    <path d="M278 292c72-93 84-188 72-256-49 49-94 134-72 256Z" fill="#E2FFD3"/>
    <path d="M52 292C17 235 7 174 14 125c42 37 76 90 99 167Z" fill="#C9FF78"/>
    <path d="M368 292c35-57 45-118 38-167-42 37-76 90-99 167Z" fill="#C9FF78"/>
    <path d="M0 318h420" stroke="#163A22" stroke-width="30" stroke-linecap="round"/>
  </g>
  <g stroke="#163A22" stroke-width="18" stroke-linecap="round" opacity="0.85">
    <path d="M468 237c-20-28-52-44-86-42"/>
    <path d="M732 237c20-28 52-44 86-42"/>
    <path d="M600 213v-53"/>
  </g>
  <text x="600" y="602" text-anchor="middle" font-family="DM Sans, Arial, sans-serif" font-size="72" font-weight="900" letter-spacing="-2" fill="#FFFFFF">Greenline</text>
  <text x="600" y="656" text-anchor="middle" font-family="DM Sans, Arial, sans-serif" font-size="34" font-weight="900" letter-spacing="7" fill="#F4FFD3">LAWN CARE</text>
</svg>
